<svg xmlns="http://www.w3.org/2000/svg" viewBox="0 0 1100 972" width="1100" height="972"><rect width="100%" height="100%" fill="#f4f7fd"/><text x="60" y="36" font-family="Inter,Arial" font-size="20" font-weight="700" fill="#1f2f4a">Denah Dunia Koperasi (tampak atas) · Blueprint v3</text><rect x="116" y="116" width="868" height="700" fill="#e9eefb" stroke="#b9c4d8" stroke-width="2"/><rect x="116" y="130" width="868" height="70" fill="#d3dbee" stroke="none" /><text x="214" y="170.59999999999997" font-size="11" font-weight="600" fill="#50607a" text-anchor="middle" font-family="Inter,Arial">JALAN UTAMA z -21.5</text><rect x="144" y="447.8" width="812" height="50.4" fill="#d3dbee" stroke="none" /><text x="858" y="478.59999999999997" font-size="11" font-weight="600" fill="#50607a" text-anchor="middle" font-family="Inter,Arial">jalan dalam z 0.5</text><rect x="116" y="629.8000000000001" width="868" height="50.4" fill="#d3dbee" stroke="none" /><text x="242" y="660.6" font-size="11" font-weight="600" fill="#50607a" text-anchor="middle" font-family="Inter,Arial">boulevard gerai z 13.5</text><rect x="244.79999999999998" y="200" width="50.4" height="247.79999999999998" fill="#d3dbee" stroke="none" /><rect x="482.8" y="498.2" width="50.4" height="131.6" fill="#d3dbee" stroke="none" /><rect x="239.20000000000002" y="204.90000000000003" width="61.60000000000001" height="7" fill="#e2534f" stroke="none" /><text x="334.40000000000003" y="214" font-size="11" font-weight="600" fill="#1f2f4a" text-anchor="middle" font-family="Inter,Arial">gerbang x -20</text><rect x="302.19999999999993" y="222.40000000000003" width="30.800000000000004" height="28" fill="#fff" stroke="#3866f6" /><rect x="123" y="253.20000000000002" width="36.4" height="103.60000000000001" fill="none" stroke="#9aa6bb" stroke-dasharray="4 3"/><text x="141.20000000000002" y="305" font-size="11" font-weight="600" fill="#50607a" text-anchor="middle" font-family="Inter,Arial">A1</text><rect x="162.20000000000002" y="253.20000000000002" width="36.4" height="103.60000000000001" fill="none" stroke="#9aa6bb" stroke-dasharray="4 3"/><text x="180.40000000000003" y="305" font-size="11" font-weight="600" fill="#50607a" text-anchor="middle" font-family="Inter,Arial">A2</text><rect x="201.40000000000003" y="253.20000000000002" width="36.4" height="103.60000000000001" fill="none" stroke="#9aa6bb" stroke-dasharray="4 3"/><text x="219.60000000000002" y="305" font-size="11" font-weight="600" fill="#50607a" text-anchor="middle" font-family="Inter,Arial">A3</text><rect x="132.79999999999998" y="217.5" width="78.39999999999999" height="28" fill="#1fa39a" stroke="none" /><rect x="396" y="344.2" width="392" height="103.60000000000001" fill="#e2e8f4" stroke="none" /><rect x="424" y="214" width="336" height="140" fill="#3866f6" stroke="#2443a6" stroke-width="2"/><text x="592" y="284" font-size="13" font-weight="700" fill="#fff" text-anchor="middle" font-family="Inter,Arial">GUDANG 24 × 10 · pusat [3, -13]</text><rect x="446.40000000000003" y="354" width="39.199999999999996" height="5.6000000000000005" fill="#2443a6" stroke="none" /><rect x="444.3" y="372.2" width="43.4" height="64.39999999999999" fill="none" stroke="#f5c542" stroke-width="2"/><text x="466" y="384.8" font-size="11" font-weight="600" fill="#1f2f4a" text-anchor="middle" font-family="Inter,Arial">D1 x -6</text><rect x="516.4000000000001" y="354" width="39.199999999999996" height="5.6000000000000005" fill="#2443a6" stroke="none" /><rect x="514.3000000000001" y="372.2" width="43.4" height="64.39999999999999" fill="none" stroke="#f5c542" stroke-width="2"/><text x="536" y="384.8" font-size="11" font-weight="600" fill="#1f2f4a" text-anchor="middle" font-family="Inter,Arial">D2 x -1</text><rect x="586.4" y="354" width="39.199999999999996" height="5.6000000000000005" fill="#2443a6" stroke="none" /><rect x="584.3000000000001" y="372.2" width="43.4" height="64.39999999999999" fill="none" stroke="#f5c542" stroke-width="2"/><text x="606" y="384.8" font-size="11" font-weight="600" fill="#1f2f4a" text-anchor="middle" font-family="Inter,Arial">D3 x 4</text><rect x="656.4" y="354" width="39.199999999999996" height="5.6000000000000005" fill="#2443a6" stroke="none" /><rect x="654.3000000000001" y="372.2" width="43.4" height="64.39999999999999" fill="none" stroke="#f5c542" stroke-width="2"/><text x="676" y="384.8" font-size="11" font-weight="600" fill="#1f2f4a" text-anchor="middle" font-family="Inter,Arial">D4 x 9</text><rect x="760" y="238.5" width="70" height="105" fill="#fff0d9" stroke="#f5c542" stroke-width="2"/><text x="795" y="291" font-size="11" font-weight="600" fill="#1f2f4a" text-anchor="middle" font-family="Inter,Arial">staging</text><rect x="859.4" y="270.7" width="39.199999999999996" height="15.400000000000002" fill="#ef7d32" stroke="none" /><text x="879" y="264.4" font-size="11" font-weight="600" fill="#1f2f4a" text-anchor="middle" font-family="Inter,Arial">rak luar</text><polyline points="795,359.59999999999997 879,359.59999999999997 879,306.40000000000003" fill="none" stroke="#f5b82e" stroke-width="3" stroke-dasharray="6 4"/><text x="837" y="373.59999999999997" font-size="10" font-weight="600" fill="#b86e0e" text-anchor="middle" font-family="Inter,Arial">jalur forklift</text><rect x="354" y="233.60000000000002" width="58.800000000000004" height="67.2" fill="#d4f0de" stroke="#8fd6a8" /><text x="383.40000000000003" y="270" font-size="10" font-weight="600" fill="#1f2f4a" text-anchor="middle" font-family="Inter,Arial">cas forklift</text><rect x="326" y="529" width="112" height="75.60000000000001" fill="#fafcff" stroke="#3866f6" stroke-width="2"/><text x="382" y="572.4" font-size="12" font-weight="600" fill="#1f2f4a" text-anchor="middle" font-family="Inter,Arial">KANTOR 8 × 5.4</text><rect x="578" y="515" width="224" height="103.60000000000001" fill="#cfe9d6" stroke="none" /><text x="690" y="572.4" font-size="11" font-weight="600" fill="#1f2f4a" text-anchor="middle" font-family="Inter,Arial">taman + papan pengumuman</text><rect x="169.20000000000002" y="702.6000000000001" width="89.60000000000001" height="75.60000000000001" fill="#d5e4dd" stroke="#5fae84" stroke-dasharray="5 3"/><text x="214" y="746" font-size="11" font-weight="600" fill="#1f2f4a" text-anchor="middle" font-family="Inter,Arial">Lahan 1</text><rect x="281.20000000000005" y="702.6000000000001" width="89.60000000000001" height="75.60000000000001" fill="#d5e4dd" stroke="#5fae84" stroke-dasharray="5 3"/><text x="326" y="746" font-size="11" font-weight="600" fill="#1f2f4a" text-anchor="middle" font-family="Inter,Arial">Lahan 2</text><rect x="393.2" y="702.6000000000001" width="89.60000000000001" height="75.60000000000001" fill="#d5e4dd" stroke="#5fae84" stroke-dasharray="5 3"/><text x="438" y="746" font-size="11" font-weight="600" fill="#1f2f4a" text-anchor="middle" font-family="Inter,Arial">Lahan 3</text><rect x="505.2" y="702.6000000000001" width="89.60000000000001" height="75.60000000000001" fill="#d5e4dd" stroke="#5fae84" stroke-dasharray="5 3"/><text x="550" y="746" font-size="11" font-weight="600" fill="#1f2f4a" text-anchor="middle" font-family="Inter,Arial">Lahan 4</text><rect x="617.1999999999999" y="702.6000000000001" width="89.60000000000001" height="75.60000000000001" fill="#d5e4dd" stroke="#5fae84" stroke-dasharray="5 3"/><text x="662" y="746" font-size="11" font-weight="600" fill="#1f2f4a" text-anchor="middle" font-family="Inter,Arial">Lahan 5</text><rect x="729.1999999999999" y="702.6000000000001" width="89.60000000000001" height="75.60000000000001" fill="#d5e4dd" stroke="#5fae84" stroke-dasharray="5 3"/><text x="774" y="746" font-size="11" font-weight="600" fill="#1f2f4a" text-anchor="middle" font-family="Inter,Arial">Lahan 6</text><rect x="841.1999999999999" y="702.6000000000001" width="89.60000000000001" height="75.60000000000001" fill="#d5e4dd" stroke="#5fae84" stroke-dasharray="5 3"/><text x="886" y="746" font-size="11" font-weight="600" fill="#1f2f4a" text-anchor="middle" font-family="Inter,Arial">Lahan 7</text><polyline points="102,181.79999999999998 270,181.79999999999998 270,396 141.20000000000002,396 141.20000000000002,305" fill="none" stroke="#3866f6" stroke-width="7" stroke-linejoin="round" stroke-linecap="round" opacity=".85"/><polyline points="141.20000000000002,305 141.20000000000002,396 270,396 270,473 536,473 536,412.38" fill="none" stroke="#3866f6" stroke-width="5" stroke-dasharray="1 9" stroke-linecap="round"/><circle cx="536" cy="368" r="10" fill="#3866f6"/><g font-family="Inter,Arial" font-size="12" fill="#50607a"><text x="60" y="942">X → timur · Z ↓ selatan · 1 unit = 14 px · kamera ortografis dari tenggara (kanan bawah) · Rute contoh: biru tebal = dilalui, titik = sisa ke dok, lingkaran = dok tujuan</text></g><text x="1040" y="960" text-anchor="end" font-size="11" fill="#8a97ab" font-family="Inter,Arial">Dibuat dari src/features/cooperative-world/layout.ts dan truck-routes.ts</text></svg>