<svg xmlns="http://www.w3.org/2000/svg" viewBox="0 0 1300 460" width="1300" height="460"><defs><linearGradient id="bg" x1="0" y1="0" x2="1" y2="1"><stop offset="0" stop-color="#EEF2FF"/><stop offset="1" stop-color="#DDE6FB"/></linearGradient>
<filter id="sd" x="-20%" y="-20%" width="140%" height="150%"><feDropShadow dx="0" dy="8" stdDeviation="10" flood-color="#3B5BDB" flood-opacity=".16"/></filter></defs><rect width="100%" height="100%" fill="url(#bg)"/><polygon points="91.5,202.0 133.1,226.0 133.1,202.0 91.5,178.0" fill="#b9e1cb" opacity="1" stroke-linejoin="round"/><polygon points="164.2,208.0 133.1,226.0 133.1,202.0 164.2,184.0" fill="#a8ccb8" opacity="1" stroke-linejoin="round"/><polygon points="122.7,160.0 164.2,184.0 133.1,202.0 91.5,178.0" fill="#c6f1da" opacity="1" stroke-linejoin="round"/><polygon points="133.1,226.0 167.7,246.0 167.7,228.0 133.1,208.0" fill="#a5c9b7" opacity="1" stroke-linejoin="round"/><polygon points="198.9,228.0 167.7,246.0 167.7,228.0 198.9,210.0" fill="#96b7a6" opacity="1" stroke-linejoin="round"/><polygon points="164.2,190.0 198.9,210.0 167.7,228.0 133.1,208.0" fill="#b1d8c4" opacity="1" stroke-linejoin="round"/><polygon points="100.2,181.0 124.4,195.0 124.4,181.0 100.2,167.0" fill="#c8d9f7" opacity="1" stroke-linejoin="round"/><polygon points="152.1,179.0 124.4,195.0 124.4,181.0 152.1,165.0" fill="#b6c5e0" opacity="1" stroke-linejoin="round"/><polygon points="127.9,151.0 152.1,165.0 124.4,181.0 100.2,167.0" fill="#d7e8ff" opacity="1" stroke-linejoin="round"/><ellipse cx="101.9" cy="208.0" rx="7" ry="9" fill="#1E2A4A"/><ellipse cx="146.9" cy="234.0" rx="7" ry="9" fill="#1E2A4A"/><text x="140.0" y="330.0" font-family="Inter,Segoe UI,sans-serif" font-size="13" font-weight="700" fill="#1E2A4A" text-anchor="middle">Mitra Sembako</text><polygon points="341.5,202.0 417.7,246.0 417.7,210.0 341.5,166.0" fill="#f7f7f7" opacity="1" stroke-linejoin="round"/><polygon points="448.9,228.0 417.7,246.0 417.7,210.0 448.9,192.0" fill="#e0e0e0" opacity="1" stroke-linejoin="round"/><polygon points="372.7,148.0 448.9,192.0 417.7,210.0 341.5,166.0" fill="#ffffff" opacity="1" stroke-linejoin="round"/><polygon points="417.7,246.0 445.4,262.0 445.4,238.0 417.7,222.0" fill="#f3d2bd" opacity="1" stroke-linejoin="round"/><polygon points="476.6,244.0 445.4,262.0 445.4,238.0 476.6,220.0" fill="#dcbeab" opacity="1" stroke-linejoin="round"/><polygon points="448.9,204.0 476.6,220.0 445.4,238.0 417.7,222.0" fill="#ffe1ca" opacity="1" stroke-linejoin="round"/><polygon points="421.9,223.6 440.9,234.6 440.9,222.6 421.9,211.6" fill="#c8d9f7" opacity="1" stroke-linejoin="round"/><polygon points="470.7,217.4 440.9,234.6 440.9,222.6 470.7,205.4" fill="#b6c5e0" opacity="1" stroke-linejoin="round"/><polygon points="451.7,194.4 470.7,205.4 440.9,222.6 421.9,211.6" fill="#d7e8ff" opacity="1" stroke-linejoin="round"/><ellipse cx="351.9" cy="208.0" rx="7" ry="9" fill="#1E2A4A"/><ellipse cx="396.9" cy="234.0" rx="7" ry="9" fill="#1E2A4A"/><text x="390.0" y="330.0" font-family="Inter,Segoe UI,sans-serif" font-size="13" font-weight="700" fill="#1E2A4A" text-anchor="middle">Mitra Hasil Tani</text><polygon points="591.5,202.0 660.8,242.0 660.8,206.0 591.5,166.0" fill="#f4e3af" opacity="1" stroke-linejoin="round"/><polygon points="692.0,224.0 660.8,242.0 660.8,206.0 692.0,188.0" fill="#ddce9f" opacity="1" stroke-linejoin="round"/><polygon points="622.7,148.0 692.0,188.0 660.8,206.0 591.5,166.0" fill="#fff4bc" opacity="1" stroke-linejoin="round"/><polygon points="644.2,209.6 659.7,218.6 659.7,206.6 644.2,197.6" fill="#c8d9f7" opacity="1" stroke-linejoin="round"/><polygon points="689.5,201.4 659.7,218.6 659.7,206.6 689.5,189.4" fill="#b6c5e0" opacity="1" stroke-linejoin="round"/><polygon points="673.9,180.4 689.5,189.4 659.7,206.6 644.2,197.6" fill="#d7e8ff" opacity="1" stroke-linejoin="round"/><ellipse cx="601.9" cy="208.0" rx="7" ry="9" fill="#1E2A4A"/><ellipse cx="646.9" cy="234.0" rx="7" ry="9" fill="#1E2A4A"/><text x="640.0" y="330.0" font-family="Inter,Segoe UI,sans-serif" font-size="13" font-weight="700" fill="#1E2A4A" text-anchor="middle">Mitra Distribusi</text><polygon points="855.4,194.0 893.5,216.0 893.5,198.0 855.4,176.0" fill="#f0c8d9" opacity="1" stroke-linejoin="round"/><polygon points="910.8,206.0 893.5,216.0 893.5,198.0 910.8,188.0" fill="#dab6c5" opacity="1" stroke-linejoin="round"/><polygon points="872.7,166.0 910.8,188.0 893.5,198.0 855.4,176.0" fill="#ffd7e8" opacity="1" stroke-linejoin="round"/><polygon points="867.5,179.0 881.3,187.0 881.3,167.0 867.5,159.0" fill="#f7f7f7" opacity="1" stroke-linejoin="round"/><polygon points="891.7,181.0 881.3,187.0 881.3,167.0 891.7,161.0" fill="#e0e0e0" opacity="1" stroke-linejoin="round"/><polygon points="877.9,153.0 891.7,161.0 881.3,167.0 867.5,159.0" fill="#ffffff" opacity="1" stroke-linejoin="round"/><ellipse cx="865.8" cy="200.0" rx="7" ry="9" fill="#1E2A4A"/><ellipse cx="883.1" cy="210.0" rx="7" ry="9" fill="#1E2A4A"/><text x="890.0" y="330.0" font-family="Inter,Segoe UI,sans-serif" font-size="13" font-weight="700" fill="#1E2A4A" text-anchor="middle">Mitra Kurir</text><polygon points="1091.5,202.0 1167.7,246.0 1167.7,210.0 1091.5,166.0" fill="#f7f7f7" opacity="1" stroke-linejoin="round"/><polygon points="1198.9,228.0 1167.7,246.0 1167.7,210.0 1198.9,192.0" fill="#e0e0e0" opacity="1" stroke-linejoin="round"/><polygon points="1122.7,148.0 1198.9,192.0 1167.7,210.0 1091.5,166.0" fill="#ffffff" opacity="1" stroke-linejoin="round"/><polygon points="1167.7,246.0 1195.4,262.0 1195.4,238.0 1167.7,222.0" fill="#5880ed" opacity="1" stroke-linejoin="round"/><polygon points="1226.6,244.0 1195.4,262.0 1195.4,238.0 1226.6,220.0" fill="#5074d7" opacity="1" stroke-linejoin="round"/><polygon points="1198.9,204.0 1226.6,220.0 1195.4,238.0 1167.7,222.0" fill="#5e89fe" opacity="1" stroke-linejoin="round"/><polygon points="1171.9,223.6 1190.9,234.6 1190.9,222.6 1171.9,211.6" fill="#c8d9f7" opacity="1" stroke-linejoin="round"/><polygon points="1220.7,217.4 1190.9,234.6 1190.9,222.6 1220.7,205.4" fill="#b6c5e0" opacity="1" stroke-linejoin="round"/><polygon points="1201.7,194.4 1220.7,205.4 1190.9,222.6 1171.9,211.6" fill="#d7e8ff" opacity="1" stroke-linejoin="round"/><ellipse cx="1101.9" cy="208.0" rx="7" ry="9" fill="#1E2A4A"/><ellipse cx="1146.9" cy="234.0" rx="7" ry="9" fill="#1E2A4A"/><text x="1140.0" y="330.0" font-family="Inter,Segoe UI,sans-serif" font-size="13" font-weight="700" fill="#1E2A4A" text-anchor="middle">Mitra Utama</text><text x="650.0" y="420.0" font-family="Inter,Segoe UI,sans-serif" font-size="13" font-weight="600" fill="#7684A8" text-anchor="middle">Setiap mitra baru mendapat model + warna kendaraan berbeda (rotasi urut)</text></svg>